# xmcd
#
# Track frame offsets:
#	150
#	16202
#	31425
#	49060
#	66782
#	80855
#	98255
#	115205
#	133512
#
# Disc length: 2012 seconds
#
# Revision: 1
# Processed by: cddbd v1.5.2PL0 Copyright (c) Steve Scherf et al.
# Submitted via: audiograbber 1.83.01
#
DISCID=6d07da09
DTITLE=Brenda David - Scratch
DYEAR=1998
DGENRE=Country
TTITLE0=Walk Away
TTITLE1=Dancing With Angels
TTITLE2=Dreaming About You
TTITLE3=Games
TTITLE4=Scratch
TTITLE5=Soul To Soul
TTITLE6=Take Me To Yesterday
TTITLE7=Frustration
TTITLE8=Woman In The Mirror
EXTD=
EXTT0=
EXTT1=
EXTT2=
EXTT3=
EXTT4=
EXTT5=
EXTT6=
EXTT7=
EXTT8=
PLAYORDER=
